<svg xmlns="http://www.w3.org/2000/svg" viewBox="-2879 7192.1 45 45">
  <defs>
    <style>
      .cls-1 {
        fill: #fff;
      }
    </style>
  </defs>
  <path id="ic_lightbulb_outline_24px" class="cls-1" d="M17.857,44.75c0,1.238,1.446,2.25,3.214,2.25H33.929c1.768,0,3.214-1.012,3.214-2.25V42.5H17.857ZM27.5,2C15.093,2,5,9.065,5,17.75c0,5.355,3.825,10.058,9.643,12.915V35.75c0,1.237,1.446,2.25,3.214,2.25H37.143c1.768,0,3.214-1.013,3.214-2.25V30.665C46.175,27.808,50,23.105,50,17.75,50,9.065,39.907,2,27.5,2Zm9.161,24.975-2.732,1.35V33.5s-9.643,1.294-12.857,0,0-5.175,0-5.175l-2.732-1.35C14,24.86,11.429,21.418,11.429,17.75c0-6.21,7.2-11.25,16.071-11.25s16.071,5.04,16.071,11.25C43.571,21.418,41,24.86,36.661,26.975Z" transform="translate(-2884 7190.1)"/>
</svg>
