<svg xmlns="http://www.w3.org/2000/svg" viewBox="-2624 3487 45 45">
  <defs>
    <style>
      .cls-1 {
        fill: #fff;
      }
    </style>
  </defs>
  <path id="ic_import_contacts_24px" class="cls-1" d="M41.909,5.824A19.1,19.1,0,0,0,34.75,4.5c-3.989,0-8.284,1.059-11.25,3.971C20.534,5.559,16.239,4.5,12.25,4.5S3.966,5.559,1,8.471V47.25c0,.662.511,1.324,1.023,1.324.2,0,.307-.132.511-.132a20.4,20.4,0,0,1,9.716-2.912c3.989,0,8.284,1.059,11.25,3.971a20.545,20.545,0,0,1,11.25-3.971,17,17,0,0,1,9.716,2.779.748.748,0,0,0,.511.132c.511,0,1.023-.662,1.023-1.324V8.471A13.064,13.064,0,0,0,41.909,5.824Zm0,35.735a18.811,18.811,0,0,0-7.159-1.324A20.545,20.545,0,0,0,23.5,44.206V13.765A20.545,20.545,0,0,1,34.75,9.794a18.811,18.811,0,0,1,7.159,1.324Z" transform="translate(-2625 3482.5)"/>
</svg>
