<svg xmlns="http://www.w3.org/2000/svg" viewBox="-9807 -2174 53 53">
  <defs>
    <style>
      .cls-1 {
        fill: #fff;
      }
    </style>
  </defs>
  <path id="ic_account_circle_24px" class="cls-1" d="M28.5,2A26.5,26.5,0,1,0,55,28.5,26.51,26.51,0,0,0,28.5,2Zm0,7.95a7.95,7.95,0,1,1-7.95,7.95A7.939,7.939,0,0,1,28.5,9.95Zm0,37.63a19.081,19.081,0,0,1-15.9-8.533c.08-5.274,10.6-8.162,15.9-8.162,5.274,0,15.82,2.889,15.9,8.162A19.081,19.081,0,0,1,28.5,47.58Z" transform="translate(-9809 -2176)"/>
</svg>
