<svg xmlns="http://www.w3.org/2000/svg" viewBox="-2955 7439 45 41">
  <defs>
    <style>
      .cls-1 {
        fill: #fff;
      }
    </style>
  </defs>
  <path id="ic_child_friendly_24px" class="cls-1" d="M28.053,6V20H47C47,10.055,38.521,6,28.053,6ZM43.021,33.253A17.322,17.322,0,0,0,47,22.25H12.516l-2.25-4.5H2v4.5H7.258s4.476,9.158,5.021,9.945a7.8,7.8,0,0,0-4.358,6.93A8.1,8.1,0,0,0,16.211,47a8.148,8.148,0,0,0,8.195-6.75h4.926a8.323,8.323,0,0,0,16.484-1.125A7.679,7.679,0,0,0,43.021,33.253ZM16.211,42.5a3.379,3.379,0,1,1,0-6.75,3.379,3.379,0,1,1,0,6.75Zm21.316,0a3.379,3.379,0,1,1,3.553-3.375A3.463,3.463,0,0,1,37.526,42.5Z" transform="translate(-2957 7433)"/>
</svg>
